<svg xmlns="http://www.w3.org/2000/svg" version="1.1" xmlns:xlink="http://www.w3.org/1999/xlink" viewBox="0 0 200 200"><rect width="200" height="200" fill="url('#gradient')"></rect><defs><linearGradient id="gradient" gradientTransform="rotate(163 0.5 0.5)"><stop offset="0%" stop-color="#96f927"></stop><stop offset="100%" stop-color="#d9e241"></stop></linearGradient></defs><g><g fill="#84b9ee" transform="matrix(2.7584243964421855,0,0,2.7584243964421855,45.593398841133265,120.4146836128865)" stroke="#0e5278" stroke-width="0.75"><path d="M5.39-2.34L5.39-2.34Q6.08-2.34 6.46-2.72Q6.85-3.10 6.84-3.77L6.84-3.77L9.92-3.77Q9.92-2.03 8.68-0.92Q7.43 0.20 5.47 0.20L5.47 0.20Q3.16 0.20 1.84-1.25Q0.51-2.70 0.51-5.25L0.51-5.25L0.51-5.39Q0.51-6.99 1.10-8.22Q1.69-9.44 2.80-10.10Q3.92-10.76 5.44-10.76L5.44-10.76Q7.50-10.76 8.71-9.62Q9.92-8.48 9.92-6.52L9.92-6.52L6.84-6.52Q6.84-7.34 6.44-7.78Q6.04-8.22 5.36-8.22L5.36-8.22Q4.08-8.22 3.87-6.59L3.87-6.59Q3.80-6.07 3.80-5.17L3.80-5.17Q3.80-3.57 4.18-2.96Q4.56-2.34 5.39-2.34ZM14.53-15L14.53-9.43Q15.59-10.76 17.23-10.76L17.23-10.76Q18.97-10.76 19.86-9.73Q20.75-8.69 20.77-6.67L20.77-6.67L20.77 0L17.47 0L17.47-6.59Q17.47-7.43 17.13-7.83Q16.79-8.22 15.97-8.22L15.97-8.22Q14.95-8.22 14.53-7.58L14.53-7.58L14.53 0L11.24 0L11.24-15L14.53-15ZM31.85 0L28.55 0Q28.38-0.32 28.24-0.95L28.24-0.95Q27.33 0.20 25.70 0.20L25.70 0.20Q24.21 0.20 23.16-0.71Q22.12-1.61 22.12-2.98L22.12-2.98Q22.12-4.70 23.39-5.58Q24.66-6.46 27.08-6.46L27.08-6.46L28.10-6.46L28.10-7.01Q28.10-8.47 26.84-8.47L26.84-8.47Q25.66-8.47 25.66-7.31L25.66-7.31L22.37-7.31Q22.37-8.85 23.68-9.80Q24.98-10.76 27.00-10.76Q29.02-10.76 30.20-9.78Q31.37-8.79 31.40-7.07L31.40-7.07L31.40-2.39Q31.42-0.94 31.85-0.17L31.85-0.17L31.85 0ZM26.49-2.15L26.49-2.15Q27.11-2.15 27.51-2.41Q27.92-2.68 28.10-3.01L28.10-3.01L28.10-4.70L27.14-4.70Q25.42-4.70 25.42-3.15L25.42-3.15Q25.42-2.71 25.72-2.43Q26.03-2.15 26.49-2.15ZM33.76-13.19L37.05-13.19L37.05-10.57L38.79-10.57L38.79-8.28L37.05-8.28L37.05-3.45Q37.05-2.85 37.27-2.62Q37.48-2.38 38.12-2.38L38.12-2.38Q38.60-2.38 38.94-2.44L38.94-2.44L38.94-0.09Q38.05 0.20 37.08 0.20L37.08 0.20Q35.38 0.20 34.57-0.61Q33.76-1.41 33.76-3.04L33.76-3.04L33.76-8.28L32.41-8.28L32.41-10.57L33.76-10.57L33.76-13.19Z"></path></g></g></svg>